<?xml version="1.0" encoding="UTF-8" standalone="no"?>
<!DOCTYPE svg PUBLIC "-//W3C//DTD SVG 1.1//EN"
 "http://www.w3.org/Graphics/SVG/1.1/DTD/svg11.dtd">
<!-- Generated by graphviz version 14.1.1 (20251213.1925)
 -->
<!-- Title: version_flow Pages: 1 -->
<svg width="388pt" height="563pt"
 viewBox="0.00 0.00 388.00 563.00" xmlns="http://www.w3.org/2000/svg" xmlns:xlink="http://www.w3.org/1999/xlink">
<g id="graph0" class="graph" transform="scale(1 1) rotate(0) translate(4 558.75)">
<title>version_flow</title>
<g id="clust1" class="cluster">
<title>cluster_upstream</title>
<path fill="none" stroke="#666666" stroke-dasharray="5,2" d="M42,-471.75C42,-471.75 352,-471.75 352,-471.75 358,-471.75 364,-477.75 364,-483.75 364,-483.75 364,-534.75 364,-534.75 364,-540.75 358,-546.75 352,-546.75 352,-546.75 42,-546.75 42,-546.75 36,-546.75 30,-540.75 30,-534.75 30,-534.75 30,-483.75 30,-483.75 30,-477.75 36,-471.75 42,-471.75"/>
<text xml:space="preserve" text-anchor="middle" x="197" y="-529.45" font-family="Helvetica,sans-Serif" font-size="14.00" fill="#666666">Upstream Sources</text>
</g>
<g id="clust2" class="cluster">
<title>cluster_workflows</title>
<path fill="none" stroke="#666666" stroke-dasharray="5,2" d="M20,-369C20,-369 360,-369 360,-369 366,-369 372,-375 372,-381 372,-381 372,-432 372,-432 372,-438 366,-444 360,-444 360,-444 20,-444 20,-444 14,-444 8,-438 8,-432 8,-432 8,-381 8,-381 8,-375 14,-369 20,-369"/>
<text xml:space="preserve" text-anchor="middle" x="190" y="-426.7" font-family="Helvetica,sans-Serif" font-size="14.00" fill="#666666">Scheduled GitHub Actions (weekly)</text>
</g>
<g id="clust3" class="cluster">
<title>cluster_repo</title>
<path fill="none" stroke="#666666" stroke-dasharray="5,2" d="M62,-266.25C62,-266.25 318,-266.25 318,-266.25 324,-266.25 330,-272.25 330,-278.25 330,-278.25 330,-329.25 330,-329.25 330,-335.25 324,-341.25 318,-341.25 318,-341.25 62,-341.25 62,-341.25 56,-341.25 50,-335.25 50,-329.25 50,-329.25 50,-278.25 50,-278.25 50,-272.25 56,-266.25 62,-266.25"/>
<text xml:space="preserve" text-anchor="middle" x="190" y="-323.95" font-family="Helvetica,sans-Serif" font-size="14.00" fill="#666666">vfox&#45;mongo repo / assets/</text>
</g>
<g id="clust4" class="cluster">
<title>cluster_runtime</title>
<path fill="none" stroke="#666666" stroke-dasharray="5,2" d="M55,-81.75C55,-81.75 345,-81.75 345,-81.75 351,-81.75 357,-87.75 357,-93.75 357,-93.75 357,-144.75 357,-144.75 357,-150.75 351,-156.75 345,-156.75 345,-156.75 55,-156.75 55,-156.75 49,-156.75 43,-150.75 43,-144.75 43,-144.75 43,-93.75 43,-93.75 43,-87.75 49,-81.75 55,-81.75"/>
<text xml:space="preserve" text-anchor="middle" x="200" y="-139.45" font-family="Helvetica,sans-Serif" font-size="14.00" fill="#666666">vfox / mise plugin runtime</text>
</g>
<!-- mongo_upstream -->
<g id="node1" class="node">
<title>mongo_upstream</title>
<path fill="#e3f2fd" stroke="black" d="M160.25,-515.75C160.25,-515.75 49.75,-515.75 49.75,-515.75 43.75,-515.75 37.75,-509.75 37.75,-503.75 37.75,-503.75 37.75,-491.75 37.75,-491.75 37.75,-485.75 43.75,-479.75 49.75,-479.75 49.75,-479.75 160.25,-479.75 160.25,-479.75 166.25,-479.75 172.25,-485.75 172.25,-491.75 172.25,-491.75 172.25,-503.75 172.25,-503.75 172.25,-509.75 166.25,-515.75 160.25,-515.75"/>
<text xml:space="preserve" text-anchor="middle" x="105" y="-499.3" font-family="Helvetica,sans-Serif" font-size="11.00">downloads.mongodb.org</text>
<text xml:space="preserve" text-anchor="middle" x="105" y="-487.3" font-family="Helvetica,sans-Serif" font-size="11.00">/full.json</text>
</g>
<!-- wf_mongo -->
<g id="node3" class="node">
<title>wf_mongo</title>
<path fill="#bbdefb" stroke="black" d="M163.62,-413C163.62,-413 28.38,-413 28.38,-413 22.38,-413 16.38,-407 16.38,-401 16.38,-401 16.38,-389 16.38,-389 16.38,-383 22.38,-377 28.38,-377 28.38,-377 163.62,-377 163.62,-377 169.62,-377 175.62,-383 175.62,-389 175.62,-389 175.62,-401 175.62,-401 175.62,-407 169.62,-413 163.62,-413"/>
<text xml:space="preserve" text-anchor="middle" x="96" y="-396.55" font-family="Helvetica,sans-Serif" font-size="11.00">update_mongo_versions.yaml</text>
<text xml:space="preserve" text-anchor="middle" x="96" y="-384.55" font-family="Helvetica,sans-Serif" font-size="11.00">Tue 16:00 UTC</text>
</g>
<!-- mongo_upstream&#45;&gt;wf_mongo -->
<g id="edge1" class="edge">
<title>mongo_upstream&#45;&gt;wf_mongo</title>
<path fill="none" stroke="black" d="M103.47,-479.66C102.13,-464.61 100.14,-442.38 98.56,-424.61"/>
<polygon fill="black" stroke="black" points="102.04,-424.33 97.67,-414.68 95.07,-424.95 102.04,-424.33"/>
<text xml:space="preserve" text-anchor="middle" x="124.71" y="-453.2" font-family="Helvetica,sans-Serif" font-size="9.00">fetch JSON</text>
</g>
<!-- mongosh_upstream -->
<g id="node2" class="node">
<title>mongosh_upstream</title>
<path fill="#e8f5e9" stroke="black" d="M344,-515.75C344,-515.75 202,-515.75 202,-515.75 196,-515.75 190,-509.75 190,-503.75 190,-503.75 190,-491.75 190,-491.75 190,-485.75 196,-479.75 202,-479.75 202,-479.75 344,-479.75 344,-479.75 350,-479.75 356,-485.75 356,-491.75 356,-491.75 356,-503.75 356,-503.75 356,-509.75 350,-515.75 344,-515.75"/>
<text xml:space="preserve" text-anchor="middle" x="273" y="-499.3" font-family="Helvetica,sans-Serif" font-size="11.00">api.github.com/repos</text>
<text xml:space="preserve" text-anchor="middle" x="273" y="-487.3" font-family="Helvetica,sans-Serif" font-size="11.00">/mongodb&#45;js/mongosh/releases</text>
</g>
<!-- wf_mongosh -->
<g id="node4" class="node">
<title>wf_mongosh</title>
<path fill="#c8e6c9" stroke="black" d="M352.25,-413C352.25,-413 205.75,-413 205.75,-413 199.75,-413 193.75,-407 193.75,-401 193.75,-401 193.75,-389 193.75,-389 193.75,-383 199.75,-377 205.75,-377 205.75,-377 352.25,-377 352.25,-377 358.25,-377 364.25,-383 364.25,-389 364.25,-389 364.25,-401 364.25,-401 364.25,-407 358.25,-413 352.25,-413"/>
<text xml:space="preserve" text-anchor="middle" x="279" y="-396.55" font-family="Helvetica,sans-Serif" font-size="11.00">update_mongosh_versions.yaml</text>
<text xml:space="preserve" text-anchor="middle" x="279" y="-384.55" font-family="Helvetica,sans-Serif" font-size="11.00">Thu 16:00 UTC</text>
</g>
<!-- mongosh_upstream&#45;&gt;wf_mongosh -->
<g id="edge4" class="edge">
<title>mongosh_upstream&#45;&gt;wf_mongosh</title>
<path fill="none" stroke="black" d="M274.02,-479.66C274.91,-464.61 276.24,-442.38 277.3,-424.61"/>
<polygon fill="black" stroke="black" points="280.79,-424.88 277.89,-414.69 273.8,-424.46 280.79,-424.88"/>
<text xml:space="preserve" text-anchor="middle" x="301.89" y="-453.2" font-family="Helvetica,sans-Serif" font-size="9.00">paginate API</text>
</g>
<!-- versions_mongo -->
<g id="node5" class="node">
<title>versions_mongo</title>
<polygon fill="#bbdefb" stroke="black" points="177.75,-310.25 58.25,-310.25 58.25,-274.25 183.75,-274.25 183.75,-304.25 177.75,-310.25"/>
<polyline fill="none" stroke="black" points="177.75,-310.25 177.75,-304.25"/>
<polyline fill="none" stroke="black" points="183.75,-304.25 177.75,-304.25"/>
<text xml:space="preserve" text-anchor="middle" x="121" y="-293.8" font-family="Helvetica,sans-Serif" font-size="11.00">{linux,darwin,windows}</text>
<text xml:space="preserve" text-anchor="middle" x="121" y="-281.8" font-family="Helvetica,sans-Serif" font-size="11.00">_versions.txt</text>
</g>
<!-- wf_mongo&#45;&gt;versions_mongo -->
<g id="edge2" class="edge">
<title>wf_mongo&#45;&gt;versions_mongo</title>
<path fill="none" stroke="black" d="M100.24,-376.91C104.01,-361.71 109.6,-339.2 114.03,-321.35"/>
<polygon fill="black" stroke="black" points="117.36,-322.44 116.37,-311.89 110.57,-320.76 117.36,-322.44"/>
<text xml:space="preserve" text-anchor="middle" x="136.63" y="-350.45" font-family="Helvetica,sans-Serif" font-size="9.00">write &amp; commit</text>
</g>
<!-- versions_mongosh -->
<g id="node6" class="node">
<title>versions_mongosh</title>
<polygon fill="#c8e6c9" stroke="black" points="316.12,-310.25 201.88,-310.25 201.88,-274.25 322.12,-274.25 322.12,-304.25 316.12,-310.25"/>
<polyline fill="none" stroke="black" points="316.12,-310.25 316.12,-304.25"/>
<polyline fill="none" stroke="black" points="322.12,-304.25 316.12,-304.25"/>
<text xml:space="preserve" text-anchor="middle" x="262" y="-287.8" font-family="Helvetica,sans-Serif" font-size="11.00">mongosh_versions.txt</text>
</g>
<!-- wf_mongosh&#45;&gt;versions_mongosh -->
<g id="edge5" class="edge">
<title>wf_mongosh&#45;&gt;versions_mongosh</title>
<path fill="none" stroke="black" d="M276.12,-376.91C273.56,-361.78 269.79,-339.41 266.79,-321.61"/>
<polygon fill="black" stroke="black" points="270.26,-321.2 265.15,-311.92 263.36,-322.36 270.26,-321.2"/>
<text xml:space="preserve" text-anchor="middle" x="302.64" y="-350.45" font-family="Helvetica,sans-Serif" font-size="9.00">write &amp; commit</text>
</g>
<!-- cdn -->
<g id="node7" class="node">
<title>cdn</title>
<path fill="#fff9c4" stroke="black" d="M297.5,-225.23C297.5,-227.03 231.39,-228.5 150,-228.5 68.61,-228.5 2.5,-227.03 2.5,-225.23 2.5,-225.23 2.5,-195.77 2.5,-195.77 2.5,-193.97 68.61,-192.5 150,-192.5 231.39,-192.5 297.5,-193.97 297.5,-195.77 297.5,-195.77 297.5,-225.23 297.5,-225.23"/>
<path fill="none" stroke="black" d="M297.5,-225.23C297.5,-223.42 231.39,-221.95 150,-221.95 68.61,-221.95 2.5,-223.42 2.5,-225.23"/>
<text xml:space="preserve" text-anchor="middle" x="150" y="-206.05" font-family="Helvetica,sans-Serif" font-size="11.00">fastly.jsdelivr.net/gh/yeshan333/vfox&#45;mongo@main/assets/</text>
</g>
<!-- versions_mongo&#45;&gt;cdn -->
<g id="edge3" class="edge">
<title>versions_mongo&#45;&gt;cdn</title>
<path fill="none" stroke="black" d="M127.29,-273.95C130.94,-263.91 135.62,-251.04 139.79,-239.59"/>
<polygon fill="black" stroke="black" points="143.07,-240.79 143.2,-230.19 136.5,-238.4 143.07,-240.79"/>
<text xml:space="preserve" text-anchor="middle" x="158.24" y="-247.7" font-family="Helvetica,sans-Serif" font-size="9.00">served via</text>
</g>
<!-- versions_mongosh&#45;&gt;cdn -->
<g id="edge6" class="edge">
<title>versions_mongosh&#45;&gt;cdn</title>
<path fill="none" stroke="black" d="M237.7,-273.95C221.85,-262.66 200.94,-247.77 183.52,-235.37"/>
<polygon fill="black" stroke="black" points="185.66,-232.6 175.49,-229.65 181.6,-238.3 185.66,-232.6"/>
<text xml:space="preserve" text-anchor="middle" x="233.71" y="-247.7" font-family="Helvetica,sans-Serif" font-size="9.00">served via</text>
</g>
<!-- hook_pre -->
<g id="node8" class="node">
<title>hook_pre</title>
<path fill="#bbdefb" stroke="black" d="M176.75,-125.75C176.75,-125.75 63.25,-125.75 63.25,-125.75 57.25,-125.75 51.25,-119.75 51.25,-113.75 51.25,-113.75 51.25,-101.75 51.25,-101.75 51.25,-95.75 57.25,-89.75 63.25,-89.75 63.25,-89.75 176.75,-89.75 176.75,-89.75 182.75,-89.75 188.75,-95.75 188.75,-101.75 188.75,-101.75 188.75,-113.75 188.75,-113.75 188.75,-119.75 182.75,-125.75 176.75,-125.75"/>
<text xml:space="preserve" text-anchor="middle" x="120" y="-109.3" font-family="Helvetica,sans-Serif" font-size="11.00">PreInstall hook</text>
<text xml:space="preserve" text-anchor="middle" x="120" y="-97.3" font-family="Helvetica,sans-Serif" font-size="11.00">(resolve mongod version)</text>
</g>
<!-- cdn&#45;&gt;hook_pre -->
<g id="edge7" class="edge">
<title>cdn&#45;&gt;hook_pre</title>
<path fill="none" stroke="black" d="M144.91,-192.41C140.39,-177.21 133.68,-154.7 128.37,-136.85"/>
<polygon fill="black" stroke="black" points="131.75,-135.96 125.55,-127.38 125.05,-137.96 131.75,-135.96"/>
<text xml:space="preserve" text-anchor="middle" x="161.19" y="-165.95" font-family="Helvetica,sans-Serif" font-size="9.00">HTTP GET</text>
</g>
<!-- hook_post -->
<g id="node9" class="node">
<title>hook_post</title>
<path fill="#c8e6c9" stroke="black" d="M337.38,-125.75C337.38,-125.75 218.62,-125.75 218.62,-125.75 212.62,-125.75 206.62,-119.75 206.62,-113.75 206.62,-113.75 206.62,-101.75 206.62,-101.75 206.62,-95.75 212.62,-89.75 218.62,-89.75 218.62,-89.75 337.38,-89.75 337.38,-89.75 343.38,-89.75 349.38,-95.75 349.38,-101.75 349.38,-101.75 349.38,-113.75 349.38,-113.75 349.38,-119.75 343.38,-125.75 337.38,-125.75"/>
<text xml:space="preserve" text-anchor="middle" x="278" y="-109.3" font-family="Helvetica,sans-Serif" font-size="11.00">PostInstall hook</text>
<text xml:space="preserve" text-anchor="middle" x="278" y="-97.3" font-family="Helvetica,sans-Serif" font-size="11.00">(resolve mongosh version)</text>
</g>
<!-- cdn&#45;&gt;hook_post -->
<g id="edge8" class="edge">
<title>cdn&#45;&gt;hook_post</title>
<path fill="none" stroke="black" d="M172,-192.18C192.7,-175.89 223.89,-151.34 247.08,-133.08"/>
<polygon fill="black" stroke="black" points="248.97,-136.05 254.67,-127.12 244.64,-130.55 248.97,-136.05"/>
<text xml:space="preserve" text-anchor="middle" x="228.09" y="-165.95" font-family="Helvetica,sans-Serif" font-size="9.00">HTTP GET</text>
</g>
<!-- bin_mongo -->
<g id="node10" class="node">
<title>bin_mongo</title>
<polygon fill="#e3f2fd" stroke="black" points="174.12,-40 171.12,-44 150.12,-44 147.12,-40 65.88,-40 65.88,-4 174.12,-4 174.12,-40"/>
<text xml:space="preserve" text-anchor="middle" x="120" y="-23.55" font-family="Helvetica,sans-Serif" font-size="11.00">fastdl.mongodb.org</text>
<text xml:space="preserve" text-anchor="middle" x="120" y="-11.55" font-family="Helvetica,sans-Serif" font-size="11.00">mongod tarball</text>
</g>
<!-- hook_pre&#45;&gt;bin_mongo -->
<g id="edge9" class="edge">
<title>hook_pre&#45;&gt;bin_mongo</title>
<path fill="none" stroke="black" d="M120,-89.4C120,-78.5 120,-64.19 120,-51.65"/>
<polygon fill="black" stroke="black" points="123.5,-51.84 120,-41.84 116.5,-51.84 123.5,-51.84"/>
<text xml:space="preserve" text-anchor="middle" x="154.12" y="-63.2" font-family="Helvetica,sans-Serif" font-size="9.00">download binary</text>
</g>
<!-- bin_mongosh -->
<g id="node11" class="node">
<title>bin_mongosh</title>
<polygon fill="#e8f5e9" stroke="black" points="341.88,-44 338.88,-48 317.88,-48 314.88,-44 214.12,-44 214.12,0 341.88,0 341.88,-44"/>
<text xml:space="preserve" text-anchor="middle" x="278" y="-29.55" font-family="Helvetica,sans-Serif" font-size="11.00">github.com/mongodb&#45;js</text>
<text xml:space="preserve" text-anchor="middle" x="278" y="-17.55" font-family="Helvetica,sans-Serif" font-size="11.00">/mongosh/releases</text>
<text xml:space="preserve" text-anchor="middle" x="278" y="-5.55" font-family="Helvetica,sans-Serif" font-size="11.00">mongosh tarball</text>
</g>
<!-- hook_post&#45;&gt;bin_mongosh -->
<g id="edge10" class="edge">
<title>hook_post&#45;&gt;bin_mongosh</title>
<path fill="none" stroke="black" d="M278,-89.4C278,-79.72 278,-67.36 278,-55.92"/>
<polygon fill="black" stroke="black" points="281.5,-56.01 278,-46.01 274.5,-56.01 281.5,-56.01"/>
<text xml:space="preserve" text-anchor="middle" x="312.12" y="-63.2" font-family="Helvetica,sans-Serif" font-size="9.00">download binary</text>
</g>
</g>
</svg>
